<svg width="18" height="30" viewBox="0 0 18 30" fill="none" xmlns="http://www.w3.org/2000/svg">
<path d="M0 8.46591H4.3773C4.3773 5.85562 5.89609 3.84024 8.88725 3.84024C11.1588 3.84024 13.2413 4.98663 13.2413 7.74398C13.2413 9.86631 12.0011 10.8422 10.0413 12.3262C7.80951 13.9606 6.042 15.869 6.16802 18.9672L6.19123 20.5147H10.5254V19.3282C10.5254 16.9285 11.4307 16.2299 13.8747 14.3616C15.8943 12.8142 18 11.0963 18 7.48997C18 2.43984 13.7686 0 9.13596 0C4.73876 0 -0.102801 2.16243 0.0033159 8.46591H0ZM5.17981 26.9017C5.17981 28.6832 6.58917 30 8.52911 30C10.5486 30 11.9381 28.6832 11.9381 26.9017C11.9381 25.0568 10.5453 23.76 8.52579 23.76C6.58917 23.76 5.17981 25.0568 5.17981 26.9017Z" fill="#F47000"/>
</svg>
